<svg width="25" height="25" viewBox="0 0 25 25" fill="none" xmlns="http://www.w3.org/2000/svg">
<path d="M17.5048 0H7.49519C3.35571 0 0 3.35571 0 7.49519V17.5048C0 21.6443 3.35571 25 7.49519 25H17.5048C21.6443 25 25 21.6443 25 17.5048V7.49519C25 3.35571 21.6443 0 17.5048 0Z" fill="white" fill-opacity="0.2"/>
<path opacity="0.8" d="M16.612 10.0015H15.001V16.771C15.001 17.7573 15.7062 18.645 16.6827 18.7436C16.9438 18.7706 17.2077 18.7424 17.4573 18.6609C17.7068 18.5793 17.9365 18.4464 18.1315 18.2705C18.3264 18.0946 18.4822 17.8798 18.5889 17.6399C18.6955 17.4 18.7507 17.1404 18.7506 16.8778V12.1402C18.7509 11.8593 18.6957 11.5811 18.5883 11.3215C18.4809 11.0619 18.3234 10.8261 18.1247 10.6274C17.9261 10.4288 17.6902 10.2713 17.4307 10.1639C17.1711 10.0565 16.8929 10.0013 16.612 10.0015Z" fill="white"/>
<path d="M15.001 16.8778V10.0015H12.139C11.5722 10.0015 11.0286 10.2267 10.6279 10.6274C10.2271 11.0282 10.0019 11.5718 10.0019 12.1386V16.8762C10.0022 17.1224 9.95385 17.3663 9.85977 17.5939C9.76568 17.8214 9.62768 18.0282 9.45364 18.2024C9.2796 18.3766 9.07294 18.5148 8.84546 18.609C8.61799 18.7033 8.37417 18.7519 8.12793 18.7519H16.8783C16.6319 18.7523 16.3878 18.7041 16.1601 18.6102C15.9324 18.5162 15.7254 18.3782 15.551 18.2041C15.3766 18.0301 15.2383 17.8233 15.1439 17.5958C15.0495 17.3682 15.001 17.1242 15.001 16.8778Z" fill="white"/>
<path opacity="0.8" d="M12.86 6.25H8.38703C7.82026 6.25 7.27669 6.47515 6.87592 6.87592C6.47515 7.2767 6.25 7.82026 6.25 8.38703V16.7708C6.25 17.7571 6.95522 18.6448 7.93168 18.7434C8.19284 18.7704 8.45673 18.7421 8.7063 18.6606C8.95587 18.5791 9.18555 18.4462 9.38048 18.2703C9.5754 18.0944 9.73124 17.8796 9.8379 17.6397C9.94457 17.3998 9.99968 17.1402 9.99967 16.8776V12.14C9.99967 11.5732 10.2248 11.0297 10.6256 10.6289C11.0264 10.2281 11.5699 10.003 12.1367 10.003H14.9987V8.39197C14.9993 8.11077 14.9445 7.83222 14.8373 7.57226C14.7301 7.31231 14.5726 7.07607 14.3739 6.87708C14.1753 6.6781 13.9393 6.52028 13.6795 6.41267C13.4197 6.30506 13.1412 6.24978 12.86 6.25ZM8.40676 9.60021C8.20342 9.60054 8.00455 9.54052 7.83534 9.42775C7.66613 9.31498 7.53419 9.15453 7.45622 8.96673C7.37825 8.77893 7.35777 8.57221 7.39736 8.37276C7.43695 8.1733 7.53484 7.99008 7.67862 7.8463C7.82241 7.70251 8.00563 7.60463 8.20508 7.56504C8.40453 7.52544 8.61125 7.54593 8.79905 7.6239C8.98686 7.70186 9.1473 7.8338 9.26007 8.00301C9.37284 8.17222 9.43286 8.37109 9.43254 8.57444C9.43254 8.84649 9.32446 9.1074 9.13209 9.29977C8.93972 9.49214 8.67881 9.60021 8.40676 9.60021Z" fill="white"/>
</svg>
