<svg width="25" height="25" viewBox="0 0 25 25" fill="none" xmlns="http://www.w3.org/2000/svg">
<path d="M17.5048 0H7.49519C3.35571 0 0 3.35571 0 7.49519V17.5048C0 21.6443 3.35571 25 7.49519 25H17.5048C21.6443 25 25 21.6443 25 17.5048V7.49519C25 3.35571 21.6443 0 17.5048 0Z" fill="white" fill-opacity="0.2"/>
<path d="M7.71274 6.60159L13.3397 8.37853C14.1911 7.81092 16.8873 7.31427 18.1289 7.13689C20.0801 6.95951 20.9856 7.35657 21.6765 7.70018C23.3631 8.53902 22.5634 10.3297 21.4991 11.0392C20.6653 11.5228 19.4946 12.1513 18.1289 12.814L19.012 16.3458C19.2227 17.1884 18.8329 18.0663 18.0665 18.475C17.2761 18.8966 16.2983 18.7063 15.7237 18.019L13.1624 14.9557C10.7972 15.8395 8.34501 16.5402 6.24463 16.7153C1.13616 17.141 2.34234 15.0006 3.58398 13.8772L2.84204 12.3934C2.64955 12.0084 2.725 11.5434 3.02936 11.2391L3.65818 10.6102C3.9368 10.3316 4.35307 10.2426 4.72128 10.3829L7.84103 11.5713L5.89905 10.159C4.88252 9.41968 4.79187 7.93702 5.71075 7.07939L5.74584 7.04664C6.27323 6.55441 7.02483 6.38435 7.71274 6.60159Z" fill="white"/>
<path d="M18.1289 12.814C19.4946 12.1513 20.6653 11.5228 21.4991 11.0392C22.5634 10.3297 23.3631 8.53902 21.6765 7.70018M18.1289 12.814L19.012 16.3458C19.2227 17.1884 18.8329 18.0663 18.0665 18.475V18.475C17.2761 18.8966 16.2983 18.7063 15.7237 18.019L13.1624 14.9557M18.1289 12.814C16.6434 13.5349 14.9271 14.2962 13.1624 14.9557M13.1624 14.9557C10.7972 15.8395 8.34501 16.5402 6.24463 16.7153C1.13616 17.141 2.34234 15.0006 3.58398 13.8772L2.84204 12.3934C2.64955 12.0084 2.725 11.5434 3.02936 11.2391L3.65818 10.6102C3.9368 10.3316 4.35306 10.2426 4.72128 10.3829L7.84103 11.5713L5.89905 10.159C4.88252 9.41968 4.79187 7.93702 5.71075 7.07939L5.74584 7.04664C6.27323 6.55441 7.02483 6.38435 7.71274 6.60159L13.3397 8.37853C14.1911 7.81092 16.8873 7.31427 18.1289 7.13689C20.0801 6.95951 20.9856 7.35657 21.6765 7.70018M21.6765 7.70018C20.494 7.9263 18.4837 8.73329 17.9515 9.4428" stroke="#4C8DE9" stroke-linecap="round" stroke-linejoin="bevel"/>
</svg>
