<svg width="34" height="34" viewBox="0 0 34 34" fill="none" xmlns="http://www.w3.org/2000/svg">
    <path
        d="M23.8065 0H10.1935C4.56377 0 0 4.56377 0 10.1935V23.8065C0 29.4362 4.56377 34 10.1935 34H23.8065C29.4362 34 34 29.4362 34 23.8065V10.1935C34 4.56377 29.4362 0 23.8065 0Z"
        fill="white" fill-opacity="0.2" />
    <path
        d="M10.4668 9.09515C10.4668 8.73048 10.3219 8.38074 10.0641 8.12288C9.80621 7.86502 9.45647 7.72015 9.0918 7.72015C8.72712 7.72015 8.37739 7.86502 8.11952 8.12288C7.86166 8.38074 7.7168 8.73048 7.7168 9.09515H10.4668Z"
        fill="#F7F7F7" />
    <path
        d="M9.0918 7.72015C8.72712 7.72015 8.37739 7.86502 8.11952 8.12288C7.86166 8.38074 7.7168 8.73048 7.7168 9.09515H8.74667C8.74667 8.51765 9.10211 8.02609 9.60605 7.8219C9.44284 7.75501 9.26819 7.72045 9.0918 7.72015Z"
        fill="white" />
    <path
        d="M24.1631 23.5327V9.78265C24.1631 9.23564 23.9458 8.71104 23.559 8.32425C23.1722 7.93745 22.6476 7.72015 22.1006 7.72015H9.03809H9.03946C9.40413 7.72015 9.75387 7.86502 10.0117 8.12288C10.2696 8.38074 10.4145 8.73048 10.4145 9.09515H10.4131V24.9077C10.4131 25.2723 10.558 25.6221 10.8158 25.8799C11.0737 26.1378 11.4234 26.2827 11.7881 26.2827H24.1631V23.5327Z"
        fill="#F7F7F7" />
    <path
        d="M9.03955 7.72015C9.40422 7.72015 9.75396 7.86502 10.0118 8.12288C10.2697 8.38074 10.4146 8.73048 10.4146 9.09515H10.4132V24.9077C10.4132 25.2723 10.558 25.6221 10.8159 25.8799C11.0738 26.1378 11.4235 26.2827 11.7882 26.2827H12.8194C12.4548 26.2827 12.105 26.1378 11.8472 25.8799C11.5893 25.6221 11.4444 25.2723 11.4444 24.9077V9.09515H11.4458C11.4458 8.73048 11.3009 8.38074 11.0431 8.12288C10.7852 7.86502 10.4355 7.72015 10.0708 7.72015H9.03955Z"
        fill="white" />
    <path
        d="M26.2812 24.9915C26.2812 25.3561 26.1364 25.7059 25.8785 25.9637C25.6207 26.2216 25.2709 26.3665 24.9062 26.3665H11.8438C12.2084 26.3665 12.5582 26.2216 12.816 25.9637C13.0739 25.7059 13.2188 25.3561 13.2188 24.9915V23.6185H26.2812V24.9915Z"
        fill="#F7F7F7" />
    <path
        d="M13.2187 23.6185V24.9922C13.2187 25.3568 13.0739 25.7066 12.816 25.9644C12.5582 26.2223 12.2084 26.3672 11.8438 26.3672H12.8716C13.2362 26.3672 13.586 26.2223 13.8438 25.9644C14.1017 25.7066 14.2466 25.3568 14.2466 24.9922V23.6185H13.2187Z"
        fill="white" />
    <path
        d="M26.2812 23.1889H24.5611V9.78058C24.5611 8.4537 23.4817 7.37433 22.1549 7.37433H9.09238C9.08413 7.37433 9.07794 7.3812 9.07038 7.3812C8.61907 7.3877 8.18839 7.57132 7.87124 7.89246C7.55408 8.2136 7.37586 8.64654 7.375 9.09789C7.375 9.18906 7.41122 9.27649 7.47568 9.34096C7.54015 9.40542 7.62758 9.44164 7.71875 9.44164H10.1236V24.9083C10.1236 25.8564 10.895 26.6271 11.8424 26.6271H24.9062C25.3206 26.6258 25.7205 26.4747 26.0321 26.2017C26.3437 25.9286 26.546 25.552 26.6016 25.1414C26.6164 25.1041 26.6243 25.0646 26.625 25.0245V23.5354C26.625 23.4442 26.5888 23.3568 26.5243 23.2923C26.4599 23.2279 26.3724 23.1916 26.2812 23.1916V23.1889ZM23.8736 9.78058V23.1889H13.2188C13.1276 23.1889 13.0401 23.2251 12.9757 23.2896C12.9112 23.354 12.875 23.4415 12.875 23.5326V24.9056C12.875 25.4741 12.4123 25.9368 11.8438 25.9368C11.2752 25.9368 10.8125 25.4741 10.8125 24.9056L10.8111 25.5848V9.10339L10.8125 9.09514C10.8125 8.70602 10.6778 8.35058 10.4584 8.06183H22.1549C23.1022 8.06183 23.8736 8.83183 23.8736 9.78058ZM8.12094 8.75139C8.26325 8.35127 8.6455 8.06389 9.09375 8.06389C9.542 8.06389 9.92425 8.35127 10.0666 8.75139H8.12094ZM24.9062 25.9368H13.2098C13.4284 25.6481 13.5625 25.294 13.5625 24.9056V23.8764H25.9375V24.9056C25.9375 25.4741 25.4748 25.9368 24.9062 25.9368Z"
        fill="#0A143B" />
    <path
        d="M14.5938 9.75928H20.0938M12.5312 11.8218H22.1562M12.5312 13.8843H22.1562M12.5312 15.9468H22.1562M12.5312 18.0093H22.1562M12.5312 20.0718H22.1562"
        stroke="#0A143B" stroke-miterlimit="10" stroke-linecap="round" stroke-linejoin="round" />
</svg>