<svg width="35" height="35" viewBox="0 0 35 35" fill="none" xmlns="http://www.w3.org/2000/svg">
<path d="M24.5067 0H10.4933C4.698 0 0 4.698 0 10.4933V24.5067C0 30.302 4.698 35 10.4933 35H24.5067C30.302 35 35 30.302 35 24.5067V10.4933C35 4.698 30.302 0 24.5067 0Z" fill="white" fill-opacity="0.2"/>
<path opacity="0.85" d="M24.3295 13.3336L22.5285 14.4735C22.5285 14.4735 21.0466 10.4839 17.2849 11.2362C17.1481 11.259 17.0342 11.2818 16.8974 11.3274C14.116 12.057 14.002 19.4207 14.002 19.4207L11.5627 20.8114L9.44244 19.4207C9.64763 14.9751 12.657 10.3927 16.3958 9.57199C21.5253 8.47769 24.3295 13.3336 24.3295 13.3336Z" fill="white"/>
<path opacity="0.7" d="M22.5286 14.4736L20.7731 13.4933C20.7731 13.4933 19.7016 10.8943 17.285 11.2591C21.0239 10.484 22.5286 14.4736 22.5286 14.4736Z" fill="white"/>
<path d="M16.0767 17.0954L14.2984 16.0695C14.1845 16.7535 14.1161 17.3918 14.0477 17.9389L15.256 18.6457V22.9773L11.4943 25.1431L7.73264 22.9773V18.6457L9.62487 17.5514C9.80725 16.7079 10.0808 15.8643 10.4456 15.0664L6 17.6426V23.9804L11.4943 27.1493L16.9886 23.9804V17.6426L16.0767 17.0954Z" fill="white"/>
<path opacity="0.8" d="M27.0653 10.7575L22.9389 8.38652L22.5057 8.13574L19.77 9.7088C20.4767 9.93678 21.115 10.256 21.685 10.6207L22.5057 10.142L26.2674 12.3078V16.6394L22.5057 18.8052L18.7441 16.6394V12.3078L19.4964 11.8746C18.9492 11.4414 18.1969 11.1223 17.2394 11.2591C17.171 11.2591 17.1026 11.2819 17.0342 11.3047L17.0114 11.3275V17.6653L22.5057 20.8342L28 17.6653V11.3275L27.0653 10.7575Z" fill="white"/>
</svg>
