<svg width="25" height="25" viewBox="0 0 25 25" fill="none" xmlns="http://www.w3.org/2000/svg">
<path d="M17.5048 0H7.49519C3.35571 0 0 3.35571 0 7.49519V17.5048C0 21.6443 3.35571 25 7.49519 25H17.5048C21.6443 25 25 21.6443 25 17.5048V7.49519C25 3.35571 21.6443 0 17.5048 0Z" fill="white" fill-opacity="0.2"/>
<path opacity="0.8" d="M12.5304 11.0504C12.2384 11.0511 11.9525 11.1342 11.7056 11.2903C11.4587 11.4463 11.261 11.6689 11.1351 11.9324C11.086 12.0324 11.0485 12.1375 11.0231 12.2459C10.9624 12.5027 10.9681 12.7706 11.0399 13.0245C11.1116 13.2783 11.2469 13.5097 11.433 13.6967C11.6191 13.8836 11.8499 14.02 12.1034 14.0929C12.3569 14.1658 12.6249 14.1728 12.8818 14.1133C12.9902 14.0876 13.0953 14.0501 13.1954 14.0013C13.5096 13.8482 13.7628 13.5934 13.914 13.2782C14.0652 12.9631 14.1054 12.6061 14.0282 12.2652C13.951 11.9243 13.7609 11.6195 13.4887 11.4003C13.2165 11.181 12.8782 11.0601 12.5287 11.0573L12.5304 11.0504ZM12.5304 13.2692C12.3975 13.2692 12.2675 13.2297 12.157 13.1558C12.0465 13.0819 11.9604 12.9769 11.9096 12.8541C11.8588 12.7312 11.8456 12.596 11.8716 12.4657C11.8977 12.3353 11.9618 12.2156 12.056 12.1217C12.1501 12.0278 12.27 11.9639 12.4004 11.9382C12.5309 11.9125 12.666 11.926 12.7887 11.9772C12.9115 12.0283 13.0163 12.1147 13.0899 12.2254C13.1635 12.3361 13.2026 12.4661 13.2023 12.5991C13.2023 12.6872 13.1849 12.7745 13.1511 12.8559C13.1173 12.9373 13.0678 13.0113 13.0054 13.0735C12.943 13.1358 12.8689 13.1851 12.7874 13.2187C12.7059 13.2522 12.6186 13.2694 12.5304 13.2692Z" fill="white"/>
<path opacity="0.8" d="M15.0026 7.59311C14.8947 7.54693 14.773 7.54529 14.6639 7.58853C14.5548 7.63177 14.4672 7.7164 14.4203 7.82394L13.7657 9.34504L8.48406 7.07114C8.45114 6.81079 8.33546 6.56789 8.15408 6.37824C7.97269 6.18859 7.73519 6.06221 7.47656 6.01773C7.21793 5.97324 6.95185 6.013 6.71752 6.13115C6.48319 6.2493 6.29301 6.43958 6.17498 6.67397C6.05696 6.90836 6.01734 7.17447 6.06197 7.43307C6.10659 7.69168 6.2331 7.92912 6.42284 8.1104C6.61259 8.29168 6.85555 8.40723 7.11592 8.44002C7.37629 8.4728 7.64031 8.42109 7.86908 8.2925L13.5917 10.7576L14.0723 10.9661C14.1648 11.0054 14.2679 11.0123 14.3648 10.9857C14.4617 10.9591 14.5469 10.9006 14.6064 10.8196C14.6252 10.7935 14.6408 10.7651 14.6529 10.7352L14.851 10.2787L15.6727 8.37002C15.7187 8.26219 15.72 8.1405 15.6764 8.03167C15.6328 7.92284 15.5479 7.83574 15.4401 7.78949L15.0026 7.59311ZM16.6046 7.26236C16.6038 7.49921 16.6727 7.73108 16.8027 7.92902L14.3704 13.6499L14.1654 14.1323C14.1391 14.1943 14.1268 14.2614 14.1292 14.3287C14.1284 14.3326 14.1284 14.3368 14.1292 14.3407C14.1284 14.3459 14.1284 14.3511 14.1292 14.3562C14.1284 14.3637 14.1284 14.3712 14.1292 14.3786C14.1292 14.3786 14.1292 14.3924 14.1292 14.3993C14.1284 14.4033 14.1284 14.4074 14.1292 14.4114V14.4286C14.1285 14.4355 14.1285 14.4424 14.1292 14.4493C14.1307 14.4567 14.1336 14.4637 14.1378 14.4699V14.4889C14.1372 14.4929 14.1372 14.4969 14.1378 14.5009C14.1378 14.5009 14.1378 14.513 14.1481 14.5164C14.15 14.5211 14.153 14.5252 14.1568 14.5285C14.1602 14.5346 14.1642 14.5404 14.1688 14.5457V14.5578C14.1738 14.5638 14.1784 14.5701 14.1826 14.5767L14.1912 14.5871L14.2291 14.6232L14.2515 14.6388C14.2776 14.6581 14.306 14.6743 14.3359 14.687L14.7804 14.8765L14.801 14.8851L16.7132 15.6982C16.8212 15.7441 16.9431 15.7452 17.0519 15.7013C17.1608 15.6573 17.2478 15.5719 17.2937 15.4639L17.4815 15.0229C17.5274 14.9148 17.5285 14.793 17.4845 14.6841C17.4406 14.5753 17.3552 14.4883 17.2472 14.4424L15.7226 13.7929L17.9983 8.45271C18.227 8.4086 18.4385 8.30033 18.6081 8.14055C18.7776 7.98077 18.8982 7.77605 18.9558 7.55031C19.0134 7.32456 19.0056 7.08709 18.9333 6.86561C18.8611 6.64413 18.7273 6.44777 18.5476 6.29946C18.3679 6.15114 18.1498 6.05699 17.9186 6.02798C17.6875 5.99898 17.4528 6.03632 17.2421 6.13564C17.0313 6.23497 16.8532 6.39218 16.7284 6.58894C16.6037 6.78569 16.5374 7.01388 16.5375 7.24685L16.6046 7.26236ZM10.5013 10.4441L10.0396 10.2529L8.11542 9.46218C8.00687 9.4176 7.88509 9.41775 7.77666 9.46261C7.66822 9.50747 7.58193 9.59339 7.53661 9.70163L7.35228 10.1461C7.32997 10.1998 7.31847 10.2574 7.31843 10.3156C7.31839 10.3737 7.32982 10.4314 7.35205 10.4851C7.37429 10.5389 7.4069 10.5877 7.44803 10.6288C7.48915 10.67 7.53799 10.7026 7.59173 10.7249L9.12145 11.3571L6.882 16.7645C6.66324 16.8288 6.4667 16.9527 6.31436 17.1223C6.16203 17.292 6.05993 17.5007 6.01948 17.7251C5.97903 17.9494 6.00184 18.1807 6.08536 18.3928C6.16887 18.605 6.30979 18.7897 6.49233 18.9263C6.67488 19.0629 6.89185 19.146 7.11895 19.1663C7.34604 19.1866 7.57431 19.1433 7.77818 19.0412C7.98205 18.9391 8.15349 18.7823 8.27329 18.5883C8.39309 18.3943 8.45653 18.1708 8.4565 17.9428C8.4566 17.666 8.36242 17.3975 8.18949 17.1814L10.5426 11.5104L10.5599 11.4725L10.7442 11.0281C10.7802 10.9395 10.7872 10.8418 10.7643 10.749C10.7414 10.6562 10.6898 10.5729 10.6167 10.5113C10.5817 10.4834 10.5428 10.4608 10.5013 10.4441ZM17.1524 16.9092L11.3833 14.4854L10.9027 14.2856C10.8204 14.252 10.73 14.2436 10.6429 14.2614C10.5558 14.2792 10.476 14.3224 10.4134 14.3855C10.3756 14.4251 10.3453 14.4712 10.3239 14.5216L10.1378 14.9747L9.32988 16.8989C9.28456 17.0072 9.28394 17.129 9.32816 17.2378C9.37238 17.3466 9.45784 17.4334 9.56589 17.4794L10.0069 17.6672C10.1153 17.712 10.2369 17.7124 10.3456 17.6682C10.4542 17.6241 10.5411 17.5389 10.5874 17.4312L11.23 15.9015L16.5547 18.1409C16.5864 18.3747 16.6849 18.5943 16.8381 18.7736C16.9914 18.9529 17.1931 19.0843 17.4191 19.1521C17.645 19.2198 17.8857 19.221 18.1124 19.1556C18.339 19.0902 18.5421 18.9609 18.6972 18.7831C18.8523 18.6054 18.9529 18.3867 18.9871 18.1533C19.0212 17.9199 18.9874 17.6816 18.8897 17.4669C18.792 17.2521 18.6346 17.0701 18.4362 16.9425C18.2377 16.8149 18.0068 16.7471 17.7709 16.7473C17.5541 16.7463 17.3409 16.8021 17.1524 16.9092ZM7.93109 7.22274C7.93064 7.39895 7.86044 7.56782 7.73583 7.69242C7.61123 7.81702 7.44236 7.88723 7.26615 7.88768C7.2244 7.88822 7.18274 7.88359 7.14212 7.8739C6.97826 7.84469 6.83137 7.75494 6.73061 7.62246C6.62985 7.48998 6.58259 7.32445 6.59821 7.15874C6.61383 6.99303 6.69118 6.83925 6.81491 6.72793C6.93865 6.61661 7.09972 6.55588 7.26615 6.55779C7.36051 6.5572 7.45388 6.57706 7.53983 6.61602C7.62577 6.65498 7.70225 6.7121 7.764 6.78346C7.87159 6.9045 7.93104 7.06079 7.93109 7.22274ZM18.4996 7.26236C18.4996 7.43871 18.4295 7.60784 18.3048 7.73254C18.1801 7.85725 18.011 7.9273 17.8346 7.9273C17.6583 7.9273 17.4891 7.85725 17.3644 7.73254C17.2397 7.60784 17.1697 7.43871 17.1697 7.26236C17.1688 7.24917 17.1688 7.23593 17.1697 7.22274C17.1819 7.05157 17.2598 6.89173 17.3871 6.77666C17.5144 6.66159 17.6812 6.6002 17.8528 6.60532C18.0243 6.61043 18.1872 6.68167 18.3074 6.80412C18.4276 6.92657 18.4959 7.09077 18.4978 7.26236H18.4996ZM7.88803 17.9428C7.89261 18.0328 7.87884 18.1229 7.84754 18.2075C7.81623 18.292 7.76806 18.3693 7.70594 18.4347C7.64383 18.5001 7.56907 18.5521 7.4862 18.5877C7.40334 18.6232 7.31411 18.6416 7.22394 18.6416C7.13377 18.6416 7.04454 18.6232 6.96168 18.5877C6.87882 18.5521 6.80406 18.5001 6.74194 18.4347C6.67983 18.3693 6.63165 18.292 6.60035 18.2075C6.56905 18.1229 6.55527 18.0328 6.55986 17.9428C6.56047 17.8137 6.59814 17.6876 6.66839 17.5793C6.74375 17.465 6.85253 17.3768 6.97989 17.3267C7.10726 17.2765 7.24699 17.2669 7.38002 17.2991C7.51305 17.3314 7.6329 17.4038 7.7232 17.5067C7.81351 17.6096 7.86986 17.7378 7.88458 17.8739C7.8863 17.9032 7.88803 17.917 7.88803 17.9394V17.9428ZM18.4307 17.9772C18.4302 18.1533 18.3599 18.322 18.2353 18.4463C18.1106 18.5706 17.9418 18.6405 17.7657 18.6405C17.6705 18.641 17.5764 18.6208 17.4898 18.5812C17.4032 18.5417 17.3263 18.4837 17.2644 18.4114C17.1814 18.3151 17.1278 18.197 17.1098 18.0712C17.0919 17.9453 17.1104 17.817 17.1631 17.7013C17.2159 17.5856 17.3007 17.4875 17.4075 17.4186C17.5143 17.3496 17.6386 17.3128 17.7657 17.3123C17.7989 17.3089 17.8324 17.3089 17.8656 17.3123C18.0236 17.3363 18.1676 17.4164 18.2713 17.5378C18.3751 17.6593 18.4316 17.8141 18.4307 17.9738V17.9772Z" fill="white"/>
<path opacity="0.8" d="M12.5304 11.0504C12.2384 11.0511 11.9525 11.1342 11.7056 11.2903C11.4587 11.4463 11.261 11.6689 11.1351 11.9324C11.086 12.0324 11.0485 12.1375 11.0231 12.2459C10.9624 12.5027 10.9681 12.7706 11.0399 13.0245C11.1116 13.2783 11.2469 13.5097 11.433 13.6967C11.6191 13.8836 11.8499 14.02 12.1034 14.0929C12.3569 14.1658 12.6249 14.1728 12.8818 14.1133C12.9902 14.0876 13.0953 14.0501 13.1954 14.0013C13.5096 13.8482 13.7628 13.5934 13.914 13.2782C14.0652 12.9631 14.1054 12.6061 14.0282 12.2652C13.951 11.9243 13.7609 11.6195 13.4887 11.4003C13.2165 11.181 12.8782 11.0601 12.5287 11.0573L12.5304 11.0504ZM12.5304 13.2692C12.3975 13.2692 12.2675 13.2297 12.157 13.1558C12.0465 13.0819 11.9604 12.9769 11.9096 12.8541C11.8588 12.7312 11.8456 12.596 11.8716 12.4657C11.8977 12.3353 11.9618 12.2156 12.056 12.1217C12.1501 12.0278 12.27 11.9639 12.4004 11.9382C12.5309 11.9125 12.666 11.926 12.7887 11.9772C12.9115 12.0283 13.0163 12.1147 13.0899 12.2254C13.1635 12.3361 13.2026 12.4661 13.2023 12.5991C13.2023 12.6872 13.1849 12.7745 13.1511 12.8559C13.1173 12.9373 13.0678 13.0113 13.0054 13.0735C12.943 13.1358 12.8689 13.1851 12.7874 13.2187C12.7059 13.2522 12.6186 13.2694 12.5304 13.2692Z" fill="white"/>
</svg>
